<svg width="30" height="30" viewBox="0 0 30 30" fill="none" xmlns="http://www.w3.org/2000/svg">
<g id="Frame" clip-path="url(#clip0_151_670)">
<g id="business-handshake--deal-contract-business-money-payment-agreement">
<path id="Union" fill-rule="evenodd" clip-rule="evenodd" d="M11.5393 11.2329L14.5479 8.51143C15.2398 7.88677 16.0593 7.42006 16.9495 7.14365C17.8398 6.86725 18.7795 6.78777 19.7036 6.91071L23.685 7.43786L29.2093 4.45286C29.2909 4.40868 29.3826 4.38646 29.4754 4.38839C29.5682 4.39032 29.6589 4.41632 29.7386 4.46385C29.8183 4.51138 29.8843 4.57881 29.9302 4.65952C29.976 4.74024 30.0001 4.83147 30 4.92429V15.0771C29.9999 15.4178 29.9186 15.7536 29.7629 16.0566C29.6071 16.3595 29.3813 16.621 29.1043 16.8193L25.3843 19.4786L21.3557 16.1014C22.1415 15.8189 22.8504 15.3566 23.4257 14.7514C23.548 14.6248 23.6441 14.4753 23.7086 14.3115C23.7731 14.1478 23.8047 13.9729 23.8017 13.7969C23.7986 13.6209 23.7608 13.4472 23.6906 13.2858C23.6204 13.1244 23.5191 12.9783 23.3925 12.8561C23.2659 12.7338 23.1164 12.6377 22.9526 12.5732C22.7888 12.5087 22.6139 12.4771 22.4379 12.4801C22.2619 12.4832 22.0883 12.5209 21.9269 12.5911C21.7654 12.6613 21.6194 12.7627 21.4971 12.8893C21.1007 13.3029 20.64 13.5686 20.1 13.6736C19.6307 13.7657 19.0329 13.7507 18.2807 13.5193L17.325 12.7157L14.6571 14.8779C14.1705 15.2633 13.5534 15.4451 12.9355 15.3852C12.3176 15.3252 11.7469 15.0282 11.3434 14.5564C10.9398 14.0847 10.7348 13.4749 10.7713 12.8551C10.8079 12.2354 11.0831 11.6539 11.5393 11.2329ZM9.74357 9.24429L11.9036 7.29214C10.975 7.03878 10.002 6.99269 9.05357 7.15714L5.12143 7.83857L0.805715 5.51571C0.722388 5.4708 0.62882 5.4483 0.53418 5.45042C0.43954 5.45254 0.347074 5.47921 0.265844 5.52782C0.184613 5.57643 0.117404 5.64531 0.0708014 5.7277C0.0241989 5.8101 -0.000197955 5.90319 1.2097e-06 5.99786V15.075C1.2097e-06 15.7993 0.357858 16.4764 0.955715 16.8836L12.645 24.8529C13.3839 25.3564 14.2593 25.6216 15.1534 25.6128C16.0476 25.604 16.9176 25.3216 17.6464 24.8036L23.0164 20.9914L17.295 16.1914L16.3414 16.9586C15.3126 17.7854 14.0023 18.1793 12.6881 18.0566C11.3739 17.934 10.1591 17.3045 9.301 16.3016C8.44294 15.2986 8.00905 14.001 8.09126 12.6837C8.17347 11.3663 8.76747 10.1328 9.74357 9.24429Z" fill="url(#paint0_linear_151_670)"/>
</g>
</g>
<defs>
<linearGradient id="paint0_linear_151_670" x1="-6.18921e-07" y1="4.38905" x2="20.0135" y2="32.6781" gradientUnits="userSpaceOnUse">
<stop stop-color="#EC0478"/>
<stop offset="1" stop-color="#FD4417"/>
</linearGradient>
<clipPath id="clip0_151_670">
<rect width="30" height="30" fill="white"/>
</clipPath>
</defs>
</svg>
